<svg xmlns="http://www.w3.org/2000/svg" version="1.1" xmlns:xlink="http://www.w3.org/1999/xlink" xmlns:svgjs="http://svgjs.dev/svgjs" viewBox="0 0 800 800"><g fill="none" stroke-width="4.5" stroke="hsl(231, 100%, 64%)" stroke-linecap="round" stroke-dasharray="125 40.5"><line x1="128.5" y1="400" x2="671.5" y2="400" transform="rotate(0, 400, 400)" opacity="0.57"></line><line x1="104.5" y1="400" x2="695.5" y2="400" transform="rotate(2, 400, 400)" opacity="0.37"></line><line x1="171.5" y1="400" x2="628.5" y2="400" transform="rotate(4, 400, 400)" opacity="0.67">
</line><line x1="-386.5" y1="400" x2="1186.5" y2="400" transform="rotate(6, 400, 400)" opacity="0.95"></line><line x1="482.5" y1="400" x2="317.5" y2="400" transform="rotate(8, 400, 400)" opacity="0.75"></line><line x1="554" y1="400" x2="246" y2="400" transform="rotate(10, 400, 400)" opacity="0.37"></line><line x1="409.5" y1="400" x2="390.5" y2="400" transform="rotate(12, 400, 400)" opacity="0.79"></line><line x1="-557" y1="400" x2="1357" y2="400" transform="rotate(14, 400, 400)" opacity="0.48"></line><line x1="-764" y1="400" x2="1564" y2="400" transform="rotate(16, 400, 400)" opacity="0.98"></line><line x1="455" y1="400" x2="345" y2="400" transform="rotate(18, 400, 400)" opacity="0.19"></line><line x1="330.5" y1="400" x2="469.5" y2="400" transform="rotate(20, 400, 400)" opacity="0.14"></line><line x1="628.5" y1="400" x2="171.5" y2="400" transform="rotate(22, 400, 400)" opacity="0.81"></line><line x1="-706.5" y1="400" x2="1506.5" y2="400" transform="rotate(24, 400, 400)" opacity="0.46"></line><line x1="-767" y1="400" x2="1567" y2="400" transform="rotate(26, 400, 400)" opacity="0.55"></line><line x1="292" y1="400" x2="508" y2="400" transform="rotate(28, 400, 400)" opacity="0.76"></line><line x1="458.5" y1="400" x2="341.5" y2="400" transform="rotate(30, 400, 400)" opacity="0.75"></line><line x1="284.5" y1="400" x2="515.5" y2="400" transform="rotate(32, 400, 400)" opacity="0.72"></line><line x1="-42.5" y1="400" x2="842.5" y2="400" transform="rotate(34, 400, 400)" opacity="0.86"></line><line x1="196" y1="400" x2="604" y2="400" transform="rotate(36, 400, 400)" opacity="0.60"></line><line x1="-841" y1="400" x2="1641" y2="400" transform="rotate(38, 400, 400)" opacity="0.66"></line>
<line x1="-767" y1="400" x2="1567" y2="400" transform="rotate(40, 400, 400)" opacity="0.35"></line><line x1="-204.5" y1="400" x2="1004.5" y2="400" transform="rotate(42, 400, 400)" opacity="0.54"></line><line x1="-800.5" y1="400" x2="1600.5" y2="400" transform="rotate(44, 400, 400)" opacity="0.67"></line><line x1="-214" y1="400" x2="1014" y2="400" transform="rotate(46, 400, 400)" opacity="0.51"></line><line x1="73" y1="400" x2="727" y2="400" transform="rotate(48, 400, 400)" opacity="0.44"></line><line x1="87.5" y1="400" x2="712.5" y2="400" transform="rotate(50, 400, 400)" opacity="0.77"></line><line x1="-322.5" y1="400" x2="1122.5" y2="400" transform="rotate(52, 400, 400)" opacity="0.17"></line><line x1="-601.5" y1="400" x2="1401.5" y2="400" transform="rotate(54, 400, 400)" opacity="0.08"></line><line x1="489.5" y1="400" x2="310.5" y2="400" transform="rotate(56, 400, 400)" opacity="0.66"></line><line x1="657" y1="400" x2="143" y2="400" transform="rotate(58, 400, 400)" opacity="0.38"></line><line x1="56" y1="400" x2="744" y2="400" transform="rotate(60, 400, 400)" opacity="0.33"></line><line x1="-69.5" y1="400" x2="869.5" y2="400" transform="rotate(62, 400, 400)" opacity="0.66"></line><line x1="390.5" y1="400" x2="409.5" y2="400" transform="rotate(64, 400, 400)" opacity="0.69"></line><line x1="-628" y1="400" x2="1428" y2="400" transform="rotate(66, 400, 400)" opacity="0.46"></line><line x1="-395" y1="400" x2="1195" y2="400" transform="rotate(68, 400, 400)" opacity="0.78"></line><line x1="-436.5" y1="400" x2="1236.5" y2="400" transform="rotate(70, 400, 400)" opacity="0.36"></line><line x1="-552" y1="400" x2="1352" y2="400" transform="rotate(72, 400, 400)" opacity="0.54"></line><line x1="569" y1="400" x2="231" y2="400" transform="rotate(74, 400, 400)" opacity="0.27"></line><line x1="-227.5" y1="400" x2="1027.5" y2="400" transform="rotate(76, 400, 400)" opacity="0.52"></line><line x1="-384.5" y1="400" x2="1184.5" y2="400" transform="rotate(78, 400, 400)" opacity="0.95"></line><line x1="-85.5" y1="400" x2="885.5" y2="400" transform="rotate(80, 400, 400)" opacity="0.31"></line><line x1="-642.5" y1="400" x2="1442.5" y2="400" transform="rotate(82, 400, 400)" opacity="0.10"></line>
<line x1="-332.5" y1="400" x2="1132.5" y2="400" transform="rotate(84, 400, 400)" opacity="0.46"></line><line x1="589" y1="400" x2="211" y2="400" transform="rotate(86, 400, 400)" opacity="0.54"></line><line x1="-133.5" y1="400" x2="933.5" y2="400" transform="rotate(88, 400, 400)" opacity="0.25"></line><line x1="-733.5" y1="400" x2="1533.5" y2="400" transform="rotate(90, 400, 400)" opacity="0.15"></line><line x1="285.5" y1="400" x2="514.5" y2="400" transform="rotate(92, 400, 400)" opacity="0.39"></line><line x1="-617" y1="400" x2="1417" y2="400" transform="rotate(94, 400, 400)" opacity="0.37"></line><line x1="565" y1="400" x2="235" y2="400" transform="rotate(96, 400, 400)" opacity="0.43"></line><line x1="-490" y1="400" x2="1290" y2="400" transform="rotate(98, 400, 400)" opacity="0.86"></line><line x1="-188" y1="400" x2="988" y2="400" transform="rotate(100, 400, 400)" opacity="0.50"></line><line x1="320.5" y1="400" x2="479.5" y2="400" transform="rotate(102, 400, 400)" opacity="0.48"></line><line x1="-22.5" y1="400" x2="822.5" y2="400" transform="rotate(104, 400, 400)" opacity="0.81"></line><line x1="-116" y1="400" x2="916" y2="400" transform="rotate(106, 400, 400)" opacity="0.15"></line><line x1="-548" y1="400" x2="1348" y2="400" transform="rotate(108, 400, 400)" opacity="0.91"></line><line x1="-506.5" y1="400" x2="1306.5" y2="400" transform="rotate(110, 400, 400)" opacity="0.15"></line><line x1="-1.5" y1="400" x2="801.5" y2="400" transform="rotate(112, 400, 400)" opacity="0.20"></line><line x1="-304" y1="400" x2="1104" y2="400" transform="rotate(114, 400, 400)" opacity="0.74"></line><line x1="9" y1="400" x2="791" y2="400" transform="rotate(116, 400, 400)" opacity="0.81"></line><line x1="-162" y1="400" x2="962" y2="400" transform="rotate(118, 400, 400)" opacity="0.97"></line><line x1="130" y1="400" x2="670" y2="400" transform="rotate(120, 400, 400)" opacity="0.97"></line><line x1="370" y1="400" x2="430" y2="400" transform="rotate(122, 400, 400)" opacity="0.73"></line><line x1="-18.5" y1="400" x2="818.5" y2="400" transform="rotate(124, 400, 400)" opacity="0.54"></line><line x1="240" y1="400" x2="560" y2="400" transform="rotate(126, 400, 400)" opacity="0.62"></line><line x1="646" y1="400" x2="154" y2="400" transform="rotate(128, 400, 400)" opacity="0.58"></line><line x1="-110" y1="400" x2="910" y2="400" transform="rotate(130, 400, 400)" opacity="0.09"></line><line x1="259" y1="400" x2="541" y2="400" transform="rotate(132, 400, 400)" opacity="0.80"></line><line x1="285" y1="400" x2="515" y2="400" transform="rotate(134, 400, 400)" opacity="0.40"></line><line x1="-410.5" y1="400" x2="1210.5" y2="400" transform="rotate(136, 400, 400)" opacity="0.45"></line><line x1="341" y1="400" x2="459" y2="400" transform="rotate(138, 400, 400)" opacity="0.70"></line><line x1="-185" y1="400" x2="985" y2="400" transform="rotate(140, 400, 400)" opacity="0.59"></line><line x1="-762" y1="400" x2="1562" y2="400" transform="rotate(142, 400, 400)" opacity="0.30"></line><line x1="204.5" y1="400" x2="595.5" y2="400" transform="rotate(144, 400, 400)" opacity="0.22"></line><line x1="-162.5" y1="400" x2="962.5" y2="400" transform="rotate(146, 400, 400)" opacity="0.84"></line><line x1="573" y1="400" x2="227" y2="400" transform="rotate(148, 400, 400)" opacity="0.53"></line><line x1="584.5" y1="400" x2="215.5" y2="400" transform="rotate(150, 400, 400)" opacity="0.73"></line><line x1="-466" y1="400" x2="1266" y2="400" transform="rotate(152, 400, 400)" opacity="0.32"></line><line x1="236.5" y1="400" x2="563.5" y2="400" transform="rotate(154, 400, 400)" opacity="0.84"></line><line x1="-259" y1="400" x2="1059" y2="400" transform="rotate(156, 400, 400)" opacity="0.84"></line><line x1="-832" y1="400" x2="1632" y2="400" transform="rotate(158, 400, 400)" opacity="0.56"></line><line x1="-422" y1="400" x2="1222" y2="400" transform="rotate(160, 400, 400)" opacity="0.98"></line><line x1="337.5" y1="400" x2="462.5" y2="400" transform="rotate(162, 400, 400)" opacity="0.60"></line><line x1="-760" y1="400" x2="1560" y2="400" transform="rotate(164, 400, 400)" opacity="0.17"></line><line x1="24" y1="400" x2="776" y2="400" transform="rotate(166, 400, 400)" opacity="0.45"></line><line x1="607" y1="400" x2="193" y2="400" transform="rotate(168, 400, 400)" opacity="0.74"></line><line x1="598" y1="400" x2="202" y2="400" transform="rotate(170, 400, 400)" opacity="0.75"></line><line x1="-635.5" y1="400" x2="1435.5" y2="400" transform="rotate(172, 400, 400)" opacity="0.79"></line><line x1="53.5" y1="400" x2="746.5" y2="400" transform="rotate(174, 400, 400)" opacity="0.94"></line><line x1="-66.5" y1="400" x2="866.5" y2="400" transform="rotate(176, 400, 400)" opacity="0.28"></line><line x1="576.5" y1="400" x2="223.5" y2="400" transform="rotate(178, 400, 400)" opacity="0.24"></line><line x1="-222.5" y1="400" x2="1022.5" y2="400" transform="rotate(180, 400, 400)" opacity="0.98"></line><line x1="-430" y1="400" x2="1230" y2="400" transform="rotate(182, 400, 400)" opacity="0.92"></line><line x1="285" y1="400" x2="515" y2="400" transform="rotate(184, 400, 400)" opacity="0.29"></line><line x1="213" y1="400" x2="587" y2="400" transform="rotate(186, 400, 400)" opacity="0.72"></line><line x1="185.5" y1="400" x2="614.5" y2="400" transform="rotate(188, 400, 400)" opacity="0.28"></line><line x1="-430.5" y1="400" x2="1230.5" y2="400" transform="rotate(190, 400, 400)" opacity="0.70"></line><line x1="-331" y1="400" x2="1131" y2="400" transform="rotate(192, 400, 400)" opacity="0.19"></line><line x1="-205" y1="400" x2="1005" y2="400" transform="rotate(194, 400, 400)" opacity="0.54"></line><line x1="-675.5" y1="400" x2="1475.5" y2="400" transform="rotate(196, 400, 400)" opacity="0.82"></line><line x1="-700" y1="400" x2="1500" y2="400" transform="rotate(198, 400, 400)" opacity="0.54"></line><line x1="379" y1="400" x2="421" y2="400" transform="rotate(200, 400, 400)" opacity="0.10"></line><line x1="52.5" y1="400" x2="747.5" y2="400" transform="rotate(202, 400, 400)" opacity="0.85"></line><line x1="357.5" y1="400" x2="442.5" y2="400" transform="rotate(204, 400, 400)" opacity="0.57"></line><line x1="-167" y1="400" x2="967" y2="400" transform="rotate(206, 400, 400)" opacity="0.19"></line><line x1="178" y1="400" x2="622" y2="400" transform="rotate(208, 400, 400)" opacity="0.42"></line><line x1="-450.5" y1="400" x2="1250.5" y2="400" transform="rotate(210, 400, 400)" opacity="0.71"></line><line x1="-297" y1="400" x2="1097" y2="400" transform="rotate(212, 400, 400)" opacity="0.80"></line><line x1="-822.5" y1="400" x2="1622.5" y2="400" transform="rotate(214, 400, 400)" opacity="0.83"></line><line x1="-543" y1="400" x2="1343" y2="400" transform="rotate(216, 400, 400)" opacity="0.85"></line><line x1="246.5" y1="400" x2="553.5" y2="400" transform="rotate(218, 400, 400)" opacity="0.65"></line><line x1="-648" y1="400" x2="1448" y2="400" transform="rotate(220, 400, 400)" opacity="0.48"></line><line x1="-356" y1="400" x2="1156" y2="400" transform="rotate(222, 400, 400)" opacity="0.69"></line><line x1="-31" y1="400" x2="831" y2="400" transform="rotate(224, 400, 400)" opacity="0.39"></line><line x1="-734.5" y1="400" x2="1534.5" y2="400" transform="rotate(226, 400, 400)" opacity="0.43"></line><line x1="-284" y1="400" x2="1084" y2="400" transform="rotate(228, 400, 400)" opacity="0.81"></line><line x1="-275.5" y1="400" x2="1075.5" y2="400" transform="rotate(230, 400, 400)" opacity="0.59"></line><line x1="-340.5" y1="400" x2="1140.5" y2="400" transform="rotate(232, 400, 400)" opacity="0.62"></line><line x1="-160.5" y1="400" x2="960.5" y2="400" transform="rotate(234, 400, 400)" opacity="0.12"></line><line x1="644" y1="400" x2="156" y2="400" transform="rotate(236, 400, 400)" opacity="0.27"></line><line x1="-445.5" y1="400" x2="1245.5" y2="400" transform="rotate(238, 400, 400)" opacity="0.36"></line><line x1="-535" y1="400" x2="1335" y2="400" transform="rotate(240, 400, 400)" opacity="0.70"></line><line x1="-467" y1="400" x2="1267" y2="400" transform="rotate(242, 400, 400)" opacity="0.87"></line><line x1="-668.5" y1="400" x2="1468.5" y2="400" transform="rotate(244, 400, 400)" opacity="0.58"></line><line x1="-199" y1="400" x2="999" y2="400" transform="rotate(246, 400, 400)" opacity="0.27"></line><line x1="-373.5" y1="400" x2="1173.5" y2="400" transform="rotate(248, 400, 400)" opacity="0.51"></line><line x1="202.5" y1="400" x2="597.5" y2="400" transform="rotate(250, 400, 400)" opacity="0.79"></line><line x1="-344" y1="400" x2="1144" y2="400" transform="rotate(252, 400, 400)" opacity="0.21"></line><line x1="413" y1="400" x2="387" y2="400" transform="rotate(254, 400, 400)" opacity="0.47"></line><line x1="473.5" y1="400" x2="326.5" y2="400" transform="rotate(256, 400, 400)" opacity="0.20"></line><line x1="179" y1="400" x2="621" y2="400" transform="rotate(258, 400, 400)" opacity="0.70"></line><line x1="643.5" y1="400" x2="156.5" y2="400" transform="rotate(260, 400, 400)" opacity="0.33"></line><line x1="573.5" y1="400" x2="226.5" y2="400" transform="rotate(262, 400, 400)" opacity="0.43"></line><line x1="194.5" y1="400" x2="605.5" y2="400" transform="rotate(264, 400, 400)" opacity="0.72"></line><line x1="213.5" y1="400" x2="586.5" y2="400" transform="rotate(266, 400, 400)" opacity="0.29"></line><line x1="9" y1="400" x2="791" y2="400" transform="rotate(268, 400, 400)" opacity="0.27"></line><line x1="632.5" y1="400" x2="167.5" y2="400" transform="rotate(270, 400, 400)" opacity="0.99"></line><line x1="-749" y1="400" x2="1549" y2="400" transform="rotate(272, 400, 400)" opacity="0.39"></line><line x1="-470.5" y1="400" x2="1270.5" y2="400" transform="rotate(274, 400, 400)" opacity="0.92"></line><line x1="633.5" y1="400" x2="166.5" y2="400" transform="rotate(276, 400, 400)" opacity="0.75"></line><line x1="-185.5" y1="400" x2="985.5" y2="400" transform="rotate(278, 400, 400)" opacity="0.22"></line><line x1="-695.5" y1="400" x2="1495.5" y2="400" transform="rotate(280, 400, 400)" opacity="0.57"></line><line x1="-3.5" y1="400" x2="803.5" y2="400" transform="rotate(282, 400, 400)" opacity="0.62"></line><line x1="-798" y1="400" x2="1598" y2="400" transform="rotate(284, 400, 400)" opacity="0.69"></line><line x1="-584" y1="400" x2="1384" y2="400" transform="rotate(286, 400, 400)" opacity="0.52"></line><line x1="496" y1="400" x2="304" y2="400" transform="rotate(288, 400, 400)" opacity="0.92"></line><line x1="-519" y1="400" x2="1319" y2="400" transform="rotate(290, 400, 400)" opacity="0.49"></line><line x1="-199.5" y1="400" x2="999.5" y2="400" transform="rotate(292, 400, 400)" opacity="0.42"></line><line x1="550" y1="400" x2="250" y2="400" transform="rotate(294, 400, 400)" opacity="0.95"></line><line x1="232" y1="400" x2="568" y2="400" transform="rotate(296, 400, 400)" opacity="0.12"></line><line x1="-67" y1="400" x2="867" y2="400" transform="rotate(298, 400, 400)" opacity="0.18"></line><line x1="37.5" y1="400" x2="762.5" y2="400" transform="rotate(300, 400, 400)" opacity="0.27"></line><line x1="581.5" y1="400" x2="218.5" y2="400" transform="rotate(302, 400, 400)" opacity="0.48"></line><line x1="-572" y1="400" x2="1372" y2="400" transform="rotate(304, 400, 400)" opacity="0.26"></line><line x1="30" y1="400" x2="770" y2="400" transform="rotate(306, 400, 400)" opacity="0.58"></line><line x1="69.5" y1="400" x2="730.5" y2="400" transform="rotate(308, 400, 400)" opacity="0.93"></line><line x1="-810.5" y1="400" x2="1610.5" y2="400" transform="rotate(310, 400, 400)" opacity="0.07"></line><line x1="-734" y1="400" x2="1534" y2="400" transform="rotate(312, 400, 400)" opacity="0.97"></line><line x1="-74.5" y1="400" x2="874.5" y2="400" transform="rotate(314, 400, 400)" opacity="0.67"></line><line x1="283.5" y1="400" x2="516.5" y2="400" transform="rotate(316, 400, 400)" opacity="0.84"></line><line x1="-344" y1="400" x2="1144" y2="400" transform="rotate(318, 400, 400)" opacity="0.39"></line><line x1="287" y1="400" x2="513" y2="400" transform="rotate(320, 400, 400)" opacity="0.62"></line><line x1="215" y1="400" x2="585" y2="400" transform="rotate(322, 400, 400)" opacity="0.52"></line><line x1="476" y1="400" x2="324" y2="400" transform="rotate(324, 400, 400)" opacity="0.80"></line><line x1="-806.5" y1="400" x2="1606.5" y2="400" transform="rotate(326, 400, 400)" opacity="0.38"></line><line x1="297.5" y1="400" x2="502.5" y2="400" transform="rotate(328, 400, 400)" opacity="0.07"></line><line x1="505.5" y1="400" x2="294.5" y2="400" transform="rotate(330, 400, 400)" opacity="0.34"></line><line x1="509" y1="400" x2="291" y2="400" transform="rotate(332, 400, 400)" opacity="0.90"></line><line x1="-832.5" y1="400" x2="1632.5" y2="400" transform="rotate(334, 400, 400)" opacity="0.64"></line><line x1="-385" y1="400" x2="1185" y2="400" transform="rotate(336, 400, 400)" opacity="0.68"></line><line x1="548" y1="400" x2="252" y2="400" transform="rotate(338, 400, 400)" opacity="0.82"></line><line x1="-448" y1="400" x2="1248" y2="400" transform="rotate(340, 400, 400)" opacity="0.36"></line><line x1="545" y1="400" x2="255" y2="400" transform="rotate(342, 400, 400)" opacity="0.54"></line><line x1="273.5" y1="400" x2="526.5" y2="400" transform="rotate(344, 400, 400)" opacity="0.83"></line><line x1="-800.5" y1="400" x2="1600.5" y2="400" transform="rotate(346, 400, 400)" opacity="0.38"></line><line x1="-710" y1="400" x2="1510" y2="400" transform="rotate(348, 400, 400)" opacity="0.53"></line><line x1="423.5" y1="400" x2="376.5" y2="400" transform="rotate(350, 400, 400)" opacity="0.70"></line><line x1="481" y1="400" x2="319" y2="400" transform="rotate(352, 400, 400)" opacity="0.55"></line><line x1="528.5" y1="400" x2="271.5" y2="400" transform="rotate(354, 400, 400)" opacity="0.91"></line><line x1="-673" y1="400" x2="1473" y2="400" transform="rotate(356, 400, 400)" opacity="0.96"></line><line x1="-199" y1="400" x2="999" y2="400" transform="rotate(358, 400, 400)" opacity="0.39"></line><line x1="-779.5" y1="400" x2="1579.5" y2="400" transform="rotate(360, 400, 400)" opacity="0.54"></line><line x1="-643" y1="400" x2="1443" y2="400" transform="rotate(362, 400, 400)" opacity="0.09"></line><line x1="-239" y1="400" x2="1039" y2="400" transform="rotate(364, 400, 400)" opacity="0.58"></line><line x1="77" y1="400" x2="723" y2="400" transform="rotate(366, 400, 400)" opacity="0.68"></line><line x1="-396" y1="400" x2="1196" y2="400" transform="rotate(368, 400, 400)" opacity="0.54"></line><line x1="-212.5" y1="400" x2="1012.5" y2="400" transform="rotate(370, 400, 400)" opacity="0.96"></line><line x1="314.5" y1="400" x2="485.5" y2="400" transform="rotate(372, 400, 400)" opacity="0.67"></line><line x1="-849.5" y1="400" x2="1649.5" y2="400" transform="rotate(374, 400, 400)" opacity="0.42"></line><line x1="-827.5" y1="400" x2="1627.5" y2="400" transform="rotate(376, 400, 400)" opacity="0.09"></line><line x1="-543.5" y1="400" x2="1343.5" y2="400" transform="rotate(378, 400, 400)" opacity="0.23"></line><line x1="-827.5" y1="400" x2="1627.5" y2="400" transform="rotate(380, 400, 400)" opacity="0.78"></line><line x1="-673" y1="400" x2="1473" y2="400" transform="rotate(382, 400, 400)" opacity="0.27"></line><line x1="-407.5" y1="400" x2="1207.5" y2="400" transform="rotate(384, 400, 400)" opacity="0.14"></line><line x1="-81" y1="400" x2="881" y2="400" transform="rotate(386, 400, 400)" opacity="0.49"></line><line x1="599" y1="400" x2="201" y2="400" transform="rotate(388, 400, 400)" opacity="0.91"></line><line x1="-165.5" y1="400" x2="965.5" y2="400" transform="rotate(390, 400, 400)" opacity="0.10"></line><line x1="-62" y1="400" x2="862" y2="400" transform="rotate(392, 400, 400)" opacity="0.36"></line><line x1="71.5" y1="400" x2="728.5" y2="400" transform="rotate(394, 400, 400)" opacity="0.81"></line><line x1="597.5" y1="400" x2="202.5" y2="400" transform="rotate(396, 400, 400)" opacity="0.52"></line><line x1="430.5" y1="400" x2="369.5" y2="400" transform="rotate(398, 400, 400)" opacity="0.96"></line><line x1="-694" y1="400" x2="1494" y2="400" transform="rotate(400, 400, 400)" opacity="0.16"></line><line x1="-468.5" y1="400" x2="1268.5" y2="400" transform="rotate(402, 400, 400)" opacity="0.67"></line><line x1="-476" y1="400" x2="1276" y2="400" transform="rotate(404, 400, 400)" opacity="0.10"></line><line x1="527.5" y1="400" x2="272.5" y2="400" transform="rotate(406, 400, 400)" opacity="0.58"></line><line x1="-176.5" y1="400" x2="976.5" y2="400" transform="rotate(408, 400, 400)" opacity="0.67"></line><line x1="537.5" y1="400" x2="262.5" y2="400" transform="rotate(410, 400, 400)" opacity="0.44"></line><line x1="-409.5" y1="400" x2="1209.5" y2="400" transform="rotate(412, 400, 400)" opacity="0.73"></line><line x1="-641" y1="400" x2="1441" y2="400" transform="rotate(414, 400, 400)" opacity="0.60"></line><line x1="581.5" y1="400" x2="218.5" y2="400" transform="rotate(416, 400, 400)" opacity="0.85"></line><line x1="262.5" y1="400" x2="537.5" y2="400" transform="rotate(418, 400, 400)" opacity="0.33"></line><line x1="-564" y1="400" x2="1364" y2="400" transform="rotate(420, 400, 400)" opacity="0.86"></line><line x1="11.5" y1="400" x2="788.5" y2="400" transform="rotate(422, 400, 400)" opacity="0.52"></line><line x1="-606.5" y1="400" x2="1406.5" y2="400" transform="rotate(424, 400, 400)" opacity="0.77"></line><line x1="-841" y1="400" x2="1641" y2="400" transform="rotate(426, 400, 400)" opacity="0.72"></line><line x1="93.5" y1="400" x2="706.5" y2="400" transform="rotate(428, 400, 400)" opacity="0.21"></line><line x1="-435.5" y1="400" x2="1235.5" y2="400" transform="rotate(430, 400, 400)" opacity="0.81"></line><line x1="634.5" y1="400" x2="165.5" y2="400" transform="rotate(432, 400, 400)" opacity="0.57"></line><line x1="-612" y1="400" x2="1412" y2="400" transform="rotate(434, 400, 400)" opacity="0.68"></line><line x1="-181.5" y1="400" x2="981.5" y2="400" transform="rotate(436, 400, 400)" opacity="0.61"></line><line x1="-738.5" y1="400" x2="1538.5" y2="400" transform="rotate(438, 400, 400)" opacity="0.65"></line><line x1="-609.5" y1="400" x2="1409.5" y2="400" transform="rotate(440, 400, 400)" opacity="0.92"></line><line x1="619" y1="400" x2="181" y2="400" transform="rotate(442, 400, 400)" opacity="0.17"></line><line x1="-755.5" y1="400" x2="1555.5" y2="400" transform="rotate(444, 400, 400)" opacity="0.80"></line><line x1="23.5" y1="400" x2="776.5" y2="400" transform="rotate(446, 400, 400)" opacity="0.23"></line><line x1="492.5" y1="400" x2="307.5" y2="400" transform="rotate(448, 400, 400)" opacity="0.38"></line></g></svg>