<svg xmlns="http://www.w3.org/2000/svg" version="1.1" xmlns:xlink="http://www.w3.org/1999/xlink" xmlns:svgjs="http://svgjs.dev/svgjs" viewBox="0 0 800 800"><rect width="100%" height="100%" fill="hsl(238, 82%, 13%)"></rect><g fill="hsl(265, 55%, 20%)"><rect width="309" height="5" x="88.5" y="155.5" rx="2.5" transform="rotate(121, 243, 158)" opacity="1.00"></rect><rect width="1020" height="5" x="-472" y="399.5" rx="2.5" transform="rotate(121, 38, 402)" opacity="0.67"></rect><rect width="467" height="5" x="-99.5" y="404.5" rx="2.5" transform="rotate(121, 134, 407)" opacity="0.21"></rect><rect width="527" height="5" x="246.5" y="125.5" rx="2.5" transform="rotate(121, 510, 128)" opacity="0.48"></rect><rect width="760" height="5" x="6" y="407.5" rx="2.5" transform="rotate(121, 386, 410)" opacity="0.81"></rect><rect width="103" height="5" x="310.5" y="124.5" rx="2.5" transform="rotate(121, 362, 127)" opacity="0.95"></rect><rect width="75" height="5" x="624.5" y="258.5" rx="2.5" transform="rotate(121, 662, 261)" opacity="0.65"></rect><rect width="671" height="5" x="425.5" y="620.5" rx="2.5" transform="rotate(121, 761, 623)" opacity="0.39"></rect><rect width="352" height="5" x="447" y="663.5" rx="2.5" transform="rotate(121, 623, 666)" opacity="0.43"></rect><rect width="376" height="5" x="211" y="775.5" rx="2.5" transform="rotate(121, 399, 778)" opacity="0.28"></rect><rect width="207" height="5" x="379.5" y="745.5" rx="2.5" transform="rotate(121, 483, 748)" opacity="0.16"></rect><rect width="372" height="5" x="299" y="190.5" rx="2.5" transform="rotate(121, 485, 193)" opacity="0.73"></rect><rect width="752" height="5" x="-276" y="363.5" rx="2.5" transform="rotate(121, 100, 366)" opacity="0.46"></rect><rect width="651" height="5" x="-5.5" y="288.5" rx="2.5" transform="rotate(121, 320, 291)" opacity="0.49"></rect><rect width="1150" height="5" x="-444" y="111.5" rx="2.5" transform="rotate(121, 131, 114)" opacity="0.91"></rect><rect width="385" height="5" x="54.5" y="92.5" rx="2.5" transform="rotate(121, 247, 95)" opacity="0.91"></rect><rect width="808" height="5" x="182" y="567.5" rx="2.5" transform="rotate(121, 586, 570)" opacity="0.47"></rect><rect width="974" height="5" x="112" y="219.5" rx="2.5" transform="rotate(121, 599, 222)" opacity="0.89"></rect><rect width="403" height="5" x="23.5" y="734.5" rx="2.5" transform="rotate(121, 225, 737)" opacity="0.36"></rect><rect width="457" height="5" x="446.5" y="25.5" rx="2.5" transform="rotate(121, 675, 28)" opacity="0.66"></rect><rect width="301" height="5" x="546.5" y="552.5" rx="2.5" transform="rotate(121, 697, 555)" opacity="0.95"></rect><rect width="668" height="5" x="16" y="507.5" rx="2.5" transform="rotate(121, 350, 510)" opacity="0.31"></rect><rect width="389" height="5" x="122.5" y="406.5" rx="2.5" transform="rotate(121, 317, 409)" opacity="0.18"></rect><rect width="535" height="5" x="195.5" y="312.5" rx="2.5" transform="rotate(121, 463, 315)" opacity="0.86"></rect><rect width="261" height="5" x="-17.5" y="262.5" rx="2.5" transform="rotate(121, 113, 265)" opacity="0.99"></rect><rect width="57" height="5" x="515.5" y="326.5" rx="2.5" transform="rotate(121, 544, 329)" opacity="0.44"></rect><rect width="95" height="5" x="626.5" y="618.5" rx="2.5" transform="rotate(121, 674, 621)" opacity="0.94"></rect><rect width="445" height="5" x="209.5" y="170.5" rx="2.5" transform="rotate(121, 432, 173)" opacity="0.93"></rect><rect width="231" height="5" x="596.5" y="215.5" rx="2.5" transform="rotate(121, 712, 218)" opacity="0.50"></rect><rect width="223" height="5" x="85.5" y="265.5" rx="2.5" transform="rotate(121, 197, 268)" opacity="0.74"></rect><rect width="136" height="5" x="354" y="372.5" rx="2.5" transform="rotate(121, 422, 375)" opacity="0.31"></rect><rect width="306" height="5" x="-48" y="455.5" rx="2.5" transform="rotate(121, 105, 458)" opacity="0.44"></rect><rect width="659" height="5" x="289.5" y="734.5" rx="2.5" transform="rotate(121, 619, 737)" opacity="0.58"></rect><rect width="332" height="5" x="353" y="595.5" rx="2.5" transform="rotate(121, 519, 598)" opacity="0.90"></rect><rect width="575" height="5" x="109.5" y="722.5" rx="2.5" transform="rotate(121, 397, 725)" opacity="0.87"></rect><rect width="733" height="5" x="-338.5" y="662.5" rx="2.5" transform="rotate(121, 28, 665)" opacity="0.84"></rect><rect width="620" height="5" x="59" y="236.5" rx="2.5" transform="rotate(121, 369, 239)" opacity="0.89"></rect><rect width="680" height="5" x="436" y="671.5" rx="2.5" transform="rotate(121, 776, 674)" opacity="0.82"></rect><rect width="68" height="5" x="742" y="727.5" rx="2.5" transform="rotate(121, 776, 730)" opacity="0.23"></rect><rect width="26" height="5" x="352" y="600.5" rx="2.5" transform="rotate(121, 365, 603)" opacity="0.68"></rect><rect width="196" height="5" x="561" y="162.5" rx="2.5" transform="rotate(121, 659, 165)" opacity="0.37"></rect><rect width="1142" height="5" x="25" y="295.5" rx="2.5" transform="rotate(121, 596, 298)" opacity="0.82"></rect><rect width="149" height="5" x="159.5" y="782.5" rx="2.5" transform="rotate(121, 234, 785)" opacity="0.93"></rect><rect width="627" height="5" x="59.5" y="17.5" rx="2.5" transform="rotate(121, 373, 20)" opacity="0.53"></rect><rect width="196" height="5" x="200" y="495.5" rx="2.5" transform="rotate(121, 298, 498)" opacity="0.12"></rect><rect width="635" height="5" x="-118.5" y="394.5" rx="2.5" transform="rotate(121, 199, 397)" opacity="0.08"></rect><rect width="877" height="5" x="248.5" y="479.5" rx="2.5" transform="rotate(121, 687, 482)" opacity="0.31"></rect><rect width="581" height="5" x="380.5" y="344.5" rx="2.5" transform="rotate(121, 671, 347)" opacity="0.82"></rect><rect width="201" height="5" x="227.5" y="89.5" rx="2.5" transform="rotate(121, 328, 92)" opacity="0.62"></rect><rect width="438" height="5" x="550" y="492.5" rx="2.5" transform="rotate(121, 769, 495)" opacity="0.17"></rect><rect width="838" height="5" x="-212" y="515.5" rx="2.5" transform="rotate(121, 207, 518)" opacity="0.27"></rect><rect width="740" height="5" x="214" y="127.5" rx="2.5" transform="rotate(121, 584, 130)" opacity="0.41"></rect><rect width="700" height="5" x="25" y="293.5" rx="2.5" transform="rotate(121, 375, 296)" opacity="0.78"></rect><rect width="258" height="5" x="433" y="764.5" rx="2.5" transform="rotate(121, 562, 767)" opacity="0.10"></rect><rect width="362" height="5" x="530" y="429.5" rx="2.5" transform="rotate(121, 711, 432)" opacity="0.17"></rect><rect width="457" height="5" x="-189.5" y="477.5" rx="2.5" transform="rotate(121, 39, 480)" opacity="0.75"></rect><rect width="542" height="5" x="128" y="105.5" rx="2.5" transform="rotate(121, 399, 108)" opacity="0.26"></rect><rect width="872" height="5" x="106" y="679.5" rx="2.5" transform="rotate(121, 542, 682)" opacity="0.61"></rect><rect width="66" height="5" x="361" y="650.5" rx="2.5" transform="rotate(121, 394, 653)" opacity="0.84"></rect><rect width="566" height="5" x="-245" y="749.5" rx="2.5" transform="rotate(121, 38, 752)" opacity="0.54"></rect><rect width="676" height="5" x="-228" y="771.5" rx="2.5" transform="rotate(121, 110, 774)" opacity="0.29"></rect><rect width="1002" height="5" x="-313" y="455.5" rx="2.5" transform="rotate(121, 188, 458)" opacity="0.85"></rect><rect width="357" height="5" x="265.5" y="111.5" rx="2.5" transform="rotate(121, 444, 114)" opacity="0.32"></rect><rect width="701" height="5" x="-304.5" y="588.5" rx="2.5" transform="rotate(121, 46, 591)" opacity="0.57"></rect><rect width="426" height="5" x="542" y="567.5" rx="2.5" transform="rotate(121, 755, 570)" opacity="0.79"></rect><rect width="85" height="5" x="184.5" y="27.5" rx="2.5" transform="rotate(121, 227, 30)" opacity="0.43"></rect><rect width="32" height="5" x="146" y="624.5" rx="2.5" transform="rotate(121, 162, 627)" opacity="0.72"></rect><rect width="84" height="5" x="83" y="527.5" rx="2.5" transform="rotate(121, 125, 530)" opacity="0.48"></rect><rect width="370" height="5" x="-151" y="250.5" rx="2.5" transform="rotate(121, 34, 253)" opacity="0.58"></rect><rect width="439" height="5" x="284.5" y="21.5" rx="2.5" transform="rotate(121, 504, 24)" opacity="0.89"></rect><rect width="963" height="5" x="156.5" y="537.5" rx="2.5" transform="rotate(121, 638, 540)" opacity="0.76"></rect><rect width="1027" height="5" x="76.5" y="385.5" rx="2.5" transform="rotate(121, 590, 388)" opacity="0.38"></rect><rect width="570" height="5" x="42" y="634.5" rx="2.5" transform="rotate(121, 327, 637)" opacity="0.19"></rect><rect width="682" height="5" x="241" y="43.5" rx="2.5" transform="rotate(121, 582, 46)" opacity="0.61"></rect><rect width="565" height="5" x="29.5" y="153.5" rx="2.5" transform="rotate(121, 312, 156)" opacity="0.97"></rect><rect width="677" height="5" x="-155.5" y="310.5" rx="2.5" transform="rotate(121, 183, 313)" opacity="0.42"></rect><rect width="522" height="5" x="519" y="391.5" rx="2.5" transform="rotate(121, 780, 394)" opacity="0.49"></rect><rect width="358" height="5" x="69" y="699.5" rx="2.5" transform="rotate(121, 248, 702)" opacity="0.48"></rect><rect width="385" height="5" x="241.5" y="542.5" rx="2.5" transform="rotate(121, 434, 545)" opacity="0.99"></rect><rect width="283" height="5" x="-91.5" y="52.5" rx="2.5" transform="rotate(121, 50, 55)" opacity="0.32"></rect><rect width="706" height="5" x="-240" y="697.5" rx="2.5" transform="rotate(121, 113, 700)" opacity="0.11"></rect><rect width="389" height="5" x="322.5" y="434.5" rx="2.5" transform="rotate(121, 517, 437)" opacity="0.58"></rect><rect width="51" height="5" x="131.5" y="746.5" rx="2.5" transform="rotate(121, 157, 749)" opacity="0.47"></rect><rect width="345" height="5" x="558.5" y="376.5" rx="2.5" transform="rotate(121, 731, 379)" opacity="0.62"></rect><rect width="177" height="5" x="321.5" y="586.5" rx="2.5" transform="rotate(121, 410, 589)" opacity="0.24"></rect><rect width="297" height="5" x="282.5" y="322.5" rx="2.5" transform="rotate(121, 431, 325)" opacity="0.33"></rect><rect width="256" height="5" x="213" y="47.5" rx="2.5" transform="rotate(121, 341, 50)" opacity="0.29"></rect><rect width="580" height="5" x="6" y="699.5" rx="2.5" transform="rotate(121, 296, 702)" opacity="0.09"></rect><rect width="465" height="5" x="249.5" y="375.5" rx="2.5" transform="rotate(121, 482, 378)" opacity="0.37"></rect><rect width="727" height="5" x="-102.5" y="448.5" rx="2.5" transform="rotate(121, 261, 451)" opacity="0.79"></rect><rect width="403" height="5" x="-171.5" y="539.5" rx="2.5" transform="rotate(121, 30, 542)" opacity="0.47"></rect><rect width="173" height="5" x="570.5" y="90.5" rx="2.5" transform="rotate(121, 657, 93)" opacity="0.22"></rect><rect width="820" height="5" x="345" y="771.5" rx="2.5" transform="rotate(121, 755, 774)" opacity="0.83"></rect><rect width="266" height="5" x="316" y="270.5" rx="2.5" transform="rotate(121, 449, 273)" opacity="0.08"></rect><rect width="387" height="5" x="100.5" y="25.5" rx="2.5" transform="rotate(121, 294, 28)" opacity="0.95"></rect><rect width="268" height="5" x="170" y="234.5" rx="2.5" transform="rotate(121, 304, 237)" opacity="0.83"></rect><rect width="362" height="5" x="322" y="327.5" rx="2.5" transform="rotate(121, 503, 330)" opacity="0.52"></rect><rect width="547" height="5" x="-11.5" y="307.5" rx="2.5" transform="rotate(121, 262, 310)" opacity="0.67"></rect><rect width="855" height="5" x="-164.5" y="370.5" rx="2.5" transform="rotate(121, 263, 373)" opacity="0.37"></rect><rect width="803" height="5" x="-247.5" y="38.5" rx="2.5" transform="rotate(121, 154, 41)" opacity="0.91"></rect><rect width="209" height="5" x="650.5" y="308.5" rx="2.5" transform="rotate(121, 755, 311)" opacity="0.83"></rect><rect width="185" height="5" x="298.5" y="332.5" rx="2.5" transform="rotate(121, 391, 335)" opacity="0.40"></rect><rect width="87" height="5" x="151.5" y="582.5" rx="2.5" transform="rotate(121, 195, 585)" opacity="0.38"></rect><rect width="416" height="5" x="114" y="756.5" rx="2.5" transform="rotate(121, 322, 759)" opacity="0.15"></rect><rect width="150" height="5" x="212" y="613.5" rx="2.5" transform="rotate(121, 287, 616)" opacity="0.97"></rect><rect width="384" height="5" x="3" y="674.5" rx="2.5" transform="rotate(121, 195, 677)" opacity="0.70"></rect><rect width="99" height="5" x="297.5" y="683.5" rx="2.5" transform="rotate(121, 347, 686)" opacity="0.72"></rect><rect width="1025" height="5" x="-69.5" y="441.5" rx="2.5" transform="rotate(121, 443, 444)" opacity="0.23"></rect><rect width="875" height="5" x="110.5" y="186.5" rx="2.5" transform="rotate(121, 548, 189)" opacity="0.97"></rect><rect width="57" height="5" x="444.5" y="512.5" rx="2.5" transform="rotate(121, 473, 515)" opacity="0.65"></rect><rect width="889" height="5" x="-330.5" y="593.5" rx="2.5" transform="rotate(121, 114, 596)" opacity="0.41"></rect><rect width="203" height="5" x="570.5" y="778.5" rx="2.5" transform="rotate(121, 672, 781)" opacity="0.11"></rect><rect width="321" height="5" x="-21.5" y="212.5" rx="2.5" transform="rotate(121, 139, 215)" opacity="0.47"></rect><rect width="476" height="5" x="37" y="201.5" rx="2.5" transform="rotate(121, 275, 204)" opacity="0.37"></rect><rect width="765" height="5" x="-154.5" y="229.5" rx="2.5" transform="rotate(121, 228, 232)" opacity="0.79"></rect><rect width="628" height="5" x="-281" y="326.5" rx="2.5" transform="rotate(121, 33, 329)" opacity="0.28"></rect><rect width="1011" height="5" x="259.5" y="33.5" rx="2.5" transform="rotate(121, 765, 36)" opacity="0.95"></rect><rect width="416" height="5" x="25" y="622.5" rx="2.5" transform="rotate(121, 233, 625)" opacity="0.82"></rect><rect width="140" height="5" x="657" y="685.5" rx="2.5" transform="rotate(121, 727, 688)" opacity="0.10"></rect><rect width="638" height="5" x="-138" y="162.5" rx="2.5" transform="rotate(121, 181, 165)" opacity="0.12"></rect><rect width="229" height="5" x="404.5" y="246.5" rx="2.5" transform="rotate(121, 519, 249)" opacity="0.74"></rect><rect width="871" height="5" x="237.5" y="688.5" rx="2.5" transform="rotate(121, 673, 691)" opacity="0.19"></rect><rect width="443" height="5" x="266.5" y="71.5" rx="2.5" transform="rotate(121, 488, 74)" opacity="0.59"></rect><rect width="230" height="5" x="154" y="755.5" rx="2.5" transform="rotate(121, 269, 758)" opacity="0.78"></rect><rect width="632" height="5" x="270" y="625.5" rx="2.5" transform="rotate(121, 586, 628)" opacity="0.79"></rect><rect width="426" height="5" x="35" y="558.5" rx="2.5" transform="rotate(121, 248, 561)" opacity="0.81"></rect><rect width="438" height="5" x="-131" y="647.5" rx="2.5" transform="rotate(121, 88, 650)" opacity="0.33"></rect><rect width="707" height="5" x="6.5" y="452.5" rx="2.5" transform="rotate(121, 360, 455)" opacity="0.72"></rect><rect width="791" height="5" x="61.5" y="662.5" rx="2.5" transform="rotate(121, 457, 665)" opacity="0.60"></rect><rect width="1025" height="5" x="248.5" y="157.5" rx="2.5" transform="rotate(121, 761, 160)" opacity="0.36"></rect><rect width="621" height="5" x="119.5" y="232.5" rx="2.5" transform="rotate(121, 430, 235)" opacity="0.53"></rect><rect width="944" height="5" x="134" y="464.5" rx="2.5" transform="rotate(121, 606, 467)" opacity="0.27"></rect><rect width="111" height="5" x="368.5" y="36.5" rx="2.5" transform="rotate(121, 424, 39)" opacity="0.38"></rect><rect width="794" height="5" x="-26" y="181.5" rx="2.5" transform="rotate(121, 371, 184)" opacity="0.71"></rect><rect width="434" height="5" x="-120" y="310.5" rx="2.5" transform="rotate(121, 97, 313)" opacity="0.91"></rect><rect width="311" height="5" x="13.5" y="349.5" rx="2.5" transform="rotate(121, 169, 352)" opacity="0.92"></rect><rect width="191" height="5" x="252.5" y="355.5" rx="2.5" transform="rotate(121, 348, 358)" opacity="0.93"></rect><rect width="335" height="5" x="293.5" y="592.5" rx="2.5" transform="rotate(121, 461, 595)" opacity="0.94"></rect><rect width="43" height="5" x="327.5" y="551.5" rx="2.5" transform="rotate(121, 349, 554)" opacity="0.16"></rect><rect width="1118" height="5" x="-507" y="165.5" rx="2.5" transform="rotate(121, 52, 168)" opacity="0.21"></rect><rect width="139" height="5" x="669.5" y="92.5" rx="2.5" transform="rotate(121, 739, 95)" opacity="0.64"></rect><rect width="615" height="5" x="-4.5" y="562.5" rx="2.5" transform="rotate(121, 303, 565)" opacity="0.75"></rect><rect width="112" height="5" x="350" y="490.5" rx="2.5" transform="rotate(121, 406, 493)" opacity="0.57"></rect><rect width="183" height="5" x="677.5" y="242.5" rx="2.5" transform="rotate(121, 769, 245)" opacity="0.16"></rect><rect width="1044" height="5" x="13" y="510.5" rx="2.5" transform="rotate(121, 535, 513)" opacity="0.95"></rect><rect width="189" height="5" x="402.5" y="286.5" rx="2.5" transform="rotate(121, 497, 289)" opacity="0.34"></rect><rect width="45" height="5" x="365.5" y="545.5" rx="2.5" transform="rotate(121, 388, 548)" opacity="0.17"></rect><rect width="203" height="5" x="89.5" y="742.5" rx="2.5" transform="rotate(121, 191, 745)" opacity="0.73"></rect><rect width="581" height="5" x="-23.5" y="657.5" rx="2.5" transform="rotate(121, 267, 660)" opacity="0.54"></rect><rect width="417" height="5" x="485.5" y="737.5" rx="2.5" transform="rotate(121, 694, 740)" opacity="0.97"></rect></g></svg>